<svg xmlns="http://www.w3.org/2000/svg" width="341" height="341" viewBox="0 0 341 341">
  <g id="Group_16269" data-name="Group 16269" transform="translate(-5367 -1335)">
    <circle id="Ellipse_4248" data-name="Ellipse 4248" cx="170.5" cy="170.5" r="170.5" transform="translate(5367 1335)" fill="#fff"/>
    <path id="Subtraction_210" data-name="Subtraction 210" d="M190.874,338.522V231.144h39.955l5.288-51.394H190.879V149.477c0-5.073,1.487-8.864,4.419-11.27a13.468,13.468,0,0,1,8.421-2.752h32.531V85.524l-44.839-.188c-45.028,0-61.072,31.552-61.072,61.079V179.7H101.552v51.44H130.34V335.174a168.632,168.632,0,0,1-51.9-22.064,170.269,170.269,0,1,1,112.438,25.413Z" transform="translate(5368 1336)" fill="#4276e1"/>
  </g>
</svg>
