<svg id="google" xmlns="http://www.w3.org/2000/svg" width="339.804" height="339.804" viewBox="0 0 339.804 339.804">
  <path id="Path_39094" data-name="Path 39094" d="M79.641,203.606a89.706,89.706,0,0,1,12.7-46.11V100.215H35.058a169.989,169.989,0,0,0,0,206.782H92.338V249.717A89.706,89.706,0,0,1,79.641,203.606Z" transform="translate(0 -33.704)" fill="#fbbd00"/>
  <path id="Path_39095" data-name="Path 39095" d="M235.821,385.6,196,425.418l39.821,39.821a168.615,168.615,0,0,0,103.391-35.058v-57.22h-57.22A90.248,90.248,0,0,1,235.821,385.6Z" transform="translate(-65.919 -125.435)" fill="#0f9d58"/>
  <path id="Path_39096" data-name="Path 39096" d="M110.1,325.477,52.823,382.758a172.612,172.612,0,0,0,14.706,16.748,168.791,168.791,0,0,0,120.139,49.763V369.627A90.3,90.3,0,0,1,110.1,325.477Z" transform="translate(-17.765 -109.465)" fill="#31aa52"/>
  <path id="Path_39097" data-name="Path 39097" d="M425.9,236.266a171.389,171.389,0,0,0-2.782-30.779l-1.494-8.163H256v79.641h80.605a89.852,89.852,0,0,1-34.434,36.926l57.22,57.22a172.611,172.611,0,0,0,16.748-14.706A168.792,168.792,0,0,0,425.9,236.266Z" transform="translate(-86.098 -66.364)" fill="#3c79e6"/>
  <path id="Path_39098" data-name="Path 39098" d="M299.645,106.078l7.039,7.039L363,56.8l-7.039-7.039A168.79,168.79,0,0,0,235.821,0L196,39.821l39.821,39.821A89.672,89.672,0,0,1,299.645,106.078Z" transform="translate(-65.919)" fill="#cf2d48"/>
  <path id="Path_39099" data-name="Path 39099" d="M187.667,79.641V0A168.794,168.794,0,0,0,67.528,49.763,172.456,172.456,0,0,0,52.822,66.511L110.1,123.791a90.3,90.3,0,0,1,77.564-44.15Z" transform="translate(-17.765 0)" fill="#eb4132"/>
</svg>
